<?xml version="1.0" encoding="UTF-8"?>
<svg xmlns="http://www.w3.org/2000/svg" version="1.1" viewBox="0 0 464.6 94">
  
  <g>
    <g id="Outlined_text">
      <g>
        <path d="M0,68h10.78c1.45,0,2.73.26,3.83.78,1.1.52,1.95,1.26,2.55,2.21.6.96.9,2.07.9,3.33,0,1.51-.38,2.79-1.14,3.83-.76,1.04-1.85,1.73-3.26,2.08,1.62.41,2.85,1.14,3.67,2.19.82,1.05,1.23,2.38,1.23,3.97,0,1.44-.31,2.69-.92,3.77-.61,1.08-1.48,1.9-2.6,2.48s-2.43.86-3.93.86H0v-25.5ZM10.05,79.03c.87,0,1.65-.17,2.33-.51.68-.34,1.21-.82,1.59-1.45.38-.63.57-1.36.57-2.18,0-1.25-.37-2.24-1.12-2.97s-1.77-1.1-3.08-1.1H3.53v8.21h6.52ZM10.63,90.69c1.32,0,2.37-.41,3.14-1.22.77-.81,1.15-1.92,1.15-3.32,0-.91-.19-1.71-.58-2.4-.39-.69-.93-1.22-1.62-1.58-.69-.37-1.48-.55-2.37-.55H3.53v9.08h7.11Z"></path>
        <path d="M28,92.74c-1.46-.83-2.58-2-3.38-3.53-.79-1.52-1.19-3.32-1.19-5.38v-15.83h3.58v15.81c0,2.26.53,4.01,1.58,5.24s2.55,1.85,4.49,1.85,3.48-.62,4.55-1.86c1.07-1.24,1.6-2.98,1.6-5.23v-15.81h3.58v15.83c0,2.06-.4,3.86-1.19,5.38-.79,1.53-1.92,2.7-3.39,3.53s-3.18,1.24-5.15,1.24-3.63-.41-5.09-1.24Z"></path>
        <path d="M50.62,91.98c-1.8-1.33-2.93-3.26-3.39-5.78h3.56c.32,1.6,1.09,2.82,2.3,3.66,1.21.84,2.74,1.26,4.6,1.26,1.19,0,2.23-.19,3.14-.57.91-.38,1.61-.92,2.12-1.6s.76-1.48.76-2.38c0-1.04-.3-1.88-.9-2.54s-1.47-1.08-2.61-1.28l-6.24-1.03c-2-.33-3.52-1.06-4.55-2.19-1.03-1.14-1.55-2.58-1.55-4.33,0-1.51.38-2.84,1.15-3.99s1.85-2.04,3.25-2.68,3.01-.96,4.84-.96c2.77,0,5.01.67,6.7,2.02,1.69,1.34,2.75,3.21,3.18,5.6h-3.54c-.33-1.58-1.04-2.76-2.15-3.55s-2.5-1.19-4.19-1.19c-1.14,0-2.14.18-3.01.55-.87.37-1.54.88-2.02,1.55-.48.66-.71,1.42-.71,2.29,0,.98.31,1.78.93,2.42s1.48,1.05,2.6,1.24l6.13,1.05c2.01.34,3.55,1.07,4.61,2.2,1.06,1.13,1.59,2.59,1.59,4.38,0,1.56-.39,2.94-1.17,4.13-.78,1.19-1.89,2.12-3.34,2.78-1.44.66-3.12.98-5.03.98-2.91,0-5.27-.67-7.07-2Z"></path>
        <path d="M72.13,68h3.56v25.5h-3.56v-25.5Z"></path>
        <path d="M81.92,68h3.86l12.21,20.23v-20.23h3.41v25.5h-3.84l-12.23-20.16v20.16h-3.41v-25.5Z"></path>
        <path d="M107.62,68h16.26v2.94h-12.73v8.03h11.92v2.83h-11.92v8.76h13.01v2.94h-16.54v-25.5Z"></path>
        <path d="M130.97,91.98c-1.8-1.33-2.93-3.26-3.39-5.78h3.56c.32,1.6,1.09,2.82,2.3,3.66,1.21.84,2.74,1.26,4.6,1.26,1.19,0,2.23-.19,3.14-.57.91-.38,1.61-.92,2.12-1.6s.76-1.48.76-2.38c0-1.04-.3-1.88-.9-2.54s-1.47-1.08-2.61-1.28l-6.24-1.03c-2-.33-3.52-1.06-4.55-2.19-1.03-1.14-1.55-2.58-1.55-4.33,0-1.51.38-2.84,1.15-3.99s1.85-2.04,3.25-2.68,3.01-.96,4.84-.96c2.77,0,5.01.67,6.7,2.02,1.69,1.34,2.75,3.21,3.18,5.6h-3.54c-.33-1.58-1.04-2.76-2.15-3.55s-2.5-1.19-4.19-1.19c-1.14,0-2.14.18-3.01.55-.87.37-1.54.88-2.02,1.55-.48.66-.71,1.42-.71,2.29,0,.98.31,1.78.93,2.42s1.48,1.05,2.6,1.24l6.13,1.05c2.01.34,3.55,1.07,4.61,2.2,1.06,1.13,1.59,2.59,1.59,4.38,0,1.56-.39,2.94-1.17,4.13-.78,1.19-1.89,2.12-3.34,2.78-1.44.66-3.12.98-5.03.98-2.91,0-5.27-.67-7.07-2Z"></path>
        <path d="M154.29,91.98c-1.8-1.33-2.93-3.26-3.39-5.78h3.56c.32,1.6,1.09,2.82,2.3,3.66,1.21.84,2.74,1.26,4.6,1.26,1.19,0,2.23-.19,3.14-.57.91-.38,1.61-.92,2.12-1.6s.76-1.48.76-2.38c0-1.04-.3-1.88-.9-2.54s-1.47-1.08-2.61-1.28l-6.24-1.03c-2-.33-3.52-1.06-4.55-2.19-1.03-1.14-1.55-2.58-1.55-4.33,0-1.51.38-2.84,1.15-3.99s1.85-2.04,3.25-2.68,3.01-.96,4.84-.96c2.77,0,5.01.67,6.7,2.02,1.69,1.34,2.75,3.21,3.18,5.6h-3.54c-.33-1.58-1.04-2.76-2.15-3.55s-2.5-1.19-4.19-1.19c-1.14,0-2.14.18-3.01.55-.87.37-1.54.88-2.02,1.55-.48.66-.71,1.42-.71,2.29,0,.98.31,1.78.93,2.42s1.48,1.05,2.6,1.24l6.13,1.05c2.01.34,3.55,1.07,4.61,2.2,1.06,1.13,1.59,2.59,1.59,4.38,0,1.56-.39,2.94-1.17,4.13-.78,1.19-1.89,2.12-3.34,2.78-1.44.66-3.12.98-5.03.98-2.91,0-5.27-.67-7.07-2Z"></path>
        <path d="M185.85,91.98c-1.8-1.33-2.93-3.26-3.39-5.78h3.56c.32,1.6,1.09,2.82,2.3,3.66,1.21.84,2.74,1.26,4.6,1.26,1.19,0,2.23-.19,3.14-.57.91-.38,1.61-.92,2.12-1.6s.76-1.48.76-2.38c0-1.04-.3-1.88-.9-2.54s-1.47-1.08-2.61-1.28l-6.24-1.03c-2-.33-3.52-1.06-4.55-2.19-1.03-1.14-1.55-2.58-1.55-4.33,0-1.51.38-2.84,1.15-3.99s1.85-2.04,3.25-2.68,3.01-.96,4.84-.96c2.77,0,5.01.67,6.7,2.02,1.69,1.34,2.75,3.21,3.18,5.6h-3.54c-.33-1.58-1.04-2.76-2.15-3.55s-2.5-1.19-4.19-1.19c-1.14,0-2.14.18-3.01.55-.87.37-1.54.88-2.02,1.55-.48.66-.71,1.42-.71,2.29,0,.98.31,1.78.93,2.42s1.48,1.05,2.6,1.24l6.13,1.05c2.01.34,3.55,1.07,4.61,2.2,1.06,1.13,1.59,2.59,1.59,4.38,0,1.56-.39,2.94-1.17,4.13-.78,1.19-1.89,2.12-3.34,2.78-1.44.66-3.12.98-5.03.98-2.91,0-5.27-.67-7.07-2Z"></path>
        <path d="M211.47,92.3c-1.72-1.11-3.06-2.67-4.01-4.67-.96-2-1.43-4.29-1.43-6.88s.48-4.88,1.43-6.88c.96-2,2.29-3.56,4.01-4.67s3.67-1.67,5.86-1.67c1.81,0,3.43.35,4.86,1.04,1.42.69,2.6,1.72,3.52,3.07.92,1.36,1.54,3,1.86,4.92h-3.54c-.33-1.89-1.07-3.36-2.22-4.41-1.16-1.05-2.63-1.57-4.43-1.57-1.58,0-2.93.41-4.08,1.24s-2.02,2-2.63,3.53c-.61,1.53-.92,3.33-.92,5.39s.31,3.86.92,5.39c.61,1.53,1.49,2.71,2.63,3.53s2.5,1.24,4.08,1.24c1.8,0,3.28-.52,4.43-1.57,1.16-1.05,1.9-2.52,2.22-4.41h3.54c-.31,1.92-.93,3.57-1.86,4.92-.93,1.36-2.1,2.38-3.52,3.07-1.43.69-3.04,1.04-4.86,1.04-2.19,0-4.14-.56-5.86-1.67Z"></path>
        <path d="M232.37,93.5v-25.5h3.56v10.97h12.41v-10.97h3.56v25.5h-3.56v-11.49h-12.41v11.49h-3.56Z"></path>
        <path d="M261.99,92.26c-1.66-1.14-2.94-2.72-3.82-4.72-.89-2-1.33-4.26-1.33-6.79s.44-4.79,1.33-6.79c.89-2,2.16-3.57,3.82-4.72,1.66-1.14,3.61-1.72,5.83-1.72s4.17.57,5.82,1.72,2.93,2.72,3.82,4.72,1.33,4.26,1.33,6.79-.44,4.79-1.33,6.79c-.89,2-2.16,3.57-3.82,4.72s-3.6,1.72-5.82,1.72-4.17-.57-5.83-1.72ZM261.39,86.18c.56,1.52,1.39,2.68,2.47,3.5,1.09.81,2.41,1.22,3.96,1.22s2.87-.41,3.95-1.22,1.9-1.98,2.46-3.5c.56-1.52.83-3.33.83-5.43s-.28-3.91-.83-5.43c-.56-1.52-1.38-2.68-2.46-3.5s-2.4-1.22-3.95-1.22-2.87.41-3.96,1.22c-1.09.81-1.91,1.98-2.47,3.5-.56,1.52-.84,3.33-.84,5.43s.28,3.91.84,5.43Z"></path>
        <path d="M287.56,92.26c-1.66-1.14-2.94-2.72-3.82-4.72-.89-2-1.33-4.26-1.33-6.79s.44-4.79,1.33-6.79c.89-2,2.16-3.57,3.82-4.72,1.66-1.14,3.61-1.72,5.83-1.72s4.17.57,5.82,1.72,2.93,2.72,3.82,4.72,1.33,4.26,1.33,6.79-.44,4.79-1.33,6.79c-.89,2-2.16,3.57-3.82,4.72s-3.6,1.72-5.82,1.72-4.17-.57-5.83-1.72ZM286.96,86.18c.56,1.52,1.39,2.68,2.47,3.5,1.09.81,2.41,1.22,3.96,1.22s2.87-.41,3.95-1.22,1.9-1.98,2.46-3.5c.56-1.52.83-3.33.83-5.43s-.28-3.91-.83-5.43c-.56-1.52-1.38-2.68-2.46-3.5s-2.4-1.22-3.95-1.22-2.87.41-3.96,1.22c-1.09.81-1.91,1.98-2.47,3.5-.56,1.52-.84,3.33-.84,5.43s.28,3.91.84,5.43Z"></path>
        <path d="M309.28,68h3.56v22.54h13.11v2.96h-16.67v-25.5Z"></path>
      </g>
    </g>
    <g id="Logo">
      <g>
        <polygon points="192.66 0 192.66 51.02 225.83 51.02 225.83 42.09 202.36 42.09 202.36 29.34 223.79 29.34 223.79 20.66 202.36 20.66 202.36 8.93 225.83 8.93 225.83 0 192.66 0"></polygon>
        <path d="M152.36,8.24h-7.14v17.19h7.14c5.59,0,9.69-2.7,9.69-8.6s-4.11-8.6-9.69-8.6M152.87,33.68h-7.65v17.35h-9.69V0h17.35C163.76,0,172.26,4.93,172.26,16.84s-8.57,16.84-19.39,16.84"></path>
        <polygon points="310.02 0 310.02 8.93 322.01 8.93 322.01 42.09 310.02 42.09 310.02 51.02 343.7 51.02 343.7 42.09 331.71 42.09 331.71 8.93 343.7 8.93 343.7 0 310.02 0"></polygon>
        <path d="M277.5,15.82c0,6.15-3.57,8.09-9.69,8.09h-8.16v-15.66h8.16c6.64,0,9.69,2.47,9.69,7.58M287.7,15.82C287.7,3.91,279.54,0,268.82,0h-18.88v51.02h9.69v-18.88h8.16c.45,0,.89,0,1.33-.02l9.88,18.9h10.74l-10.96-20.92c5.33-2.37,8.91-6.92,8.91-14.28"></path>
        <path d="M386.23,9.05l6.98,22.51h-13.95l6.98-22.51ZM379.85,0l-16.84,51.02h10.2l3.48-11.23h19.06l3.48,11.23h10.2L392.61,0h-12.76Z"></path>
        <polygon points="431.33 0 431.33 51.02 464.58 51.02 464.58 42.09 441.03 42.09 441.03 0 431.33 0"></polygon>
        <polygon points="97.09 0 84.84 30 72.59 0 58.82 0 58.82 51.02 68 51.02 68 12.88 79.74 39.8 80.25 39.8 89.43 39.8 89.94 39.8 101.68 12.88 101.68 51.02 110.86 51.02 110.86 0 97.09 0"></polygon>
        <polygon points="0 0 0 8.93 11.99 8.93 11.99 42.09 0 42.09 0 51.02 33.68 51.02 33.68 42.09 21.68 42.09 21.68 8.93 33.68 8.93 33.68 0 0 0"></polygon>
      </g>
    </g>
  </g>
</svg>